<svg width="331" height="112" viewBox="0 0 331 112" fill="none" xmlns="http://www.w3.org/2000/svg">
<path fill-rule="evenodd" clip-rule="evenodd" d="M331 0H0V112H331V0ZM13.8672 28.8125V80H30.707C35.1367 79.9766 39.1445 78.9219 42.7305 76.8359C46.3398 74.7266 49.1289 71.8203 51.0977 68.1172C53.0898 64.3906 54.0859 60.1836 54.0859 55.4961V53.1406C54.0625 48.5 53.0312 44.3164 50.9922 40.5898C48.9766 36.8398 46.1641 33.9453 42.5547 31.9062C38.9453 29.8438 34.8789 28.8125 30.3555 28.8125H13.8672ZM26.207 70.5078V38.3398H30.3555C33.9883 38.3398 36.7539 39.5938 38.6523 42.1016C40.5508 44.6094 41.5 48.3359 41.5 53.2812V55.4961C41.5 60.4648 40.5508 64.2148 38.6523 66.7461C36.7539 69.2539 34.0352 70.5078 30.4961 70.5078H26.207ZM60.4844 80H72.3672V41.9609H60.4844V80ZM61.6094 28.0039C60.3906 29.082 59.7812 30.4648 59.7812 32.1523C59.7812 33.8398 60.3906 35.2227 61.6094 36.3008C62.8281 37.3789 64.4102 37.918 66.3555 37.918C68.3008 37.918 69.8828 37.3789 71.1016 36.3008C72.3203 35.2227 72.9297 33.8398 72.9297 32.1523C72.9297 30.4648 72.3203 29.082 71.1016 28.0039C69.8828 26.9258 68.3008 26.3867 66.3555 26.3867C64.4102 26.3867 62.8281 26.9258 61.6094 28.0039ZM100.879 41.9609L94.8672 65.9023L88.9609 41.9609H76.4453L88.8555 80H100.949L113.359 41.9609H100.879ZM138.426 41.9609L132.098 63.4062L126.086 41.9609H113.43L126.648 80.3516L125.699 82.8828C125.277 84.125 124.621 84.9805 123.73 85.4492C122.863 85.9414 121.598 86.1875 119.934 86.1875H118.387V94.6602C120.098 95.1289 121.727 95.3633 123.273 95.3633C128.852 95.3633 132.742 92.9023 134.945 87.9805L135.613 86.3633L151.117 41.9609H138.426ZM173.969 76.5898C174.297 78.0898 174.672 79.2266 175.094 80H186.941V79.4023C185.91 77.5508 185.371 74.8789 185.324 71.3867V54.5469C185.254 50.4219 183.812 47.1758 181 44.8086C178.188 42.4414 174.355 41.2578 169.504 41.2578C164.652 41.2578 160.656 42.4062 157.516 44.7031C154.398 47 152.84 49.9883 152.84 53.668H164.688C164.688 50.9023 166.094 49.5195 168.906 49.5195C171.93 49.5195 173.441 51.2656 173.441 54.7578V56.7617H169.785C163.973 56.7617 159.543 57.8164 156.496 59.9258C153.449 62.0352 151.926 65.1523 151.926 69.2773C151.926 72.5586 153.18 75.2891 155.688 77.4688C158.195 79.625 161.242 80.7031 164.828 80.7031C168.742 80.7031 171.789 79.332 173.969 76.5898ZM171.332 71.3164C170.371 71.9492 169.152 72.2656 167.676 72.2656C166.551 72.2656 165.625 71.9375 164.898 71.2812C164.172 70.6016 163.809 69.7227 163.809 68.6445C163.809 64.9414 165.871 63.0898 169.996 63.0898H173.441V69.1719C173.02 69.9688 172.316 70.6836 171.332 71.3164ZM203.184 46.4258L202.797 41.9609H191.688V80H203.535V53.1406C204.66 51.3125 206.383 50.3984 208.703 50.3984C210.742 50.3984 212.148 50.8555 212.922 51.7695C213.695 52.6602 214.082 54.0664 214.082 55.9883V80H225.965V55.4961C225.895 50.7383 224.875 47.1758 222.906 44.8086C220.961 42.4414 218.008 41.2578 214.047 41.2578C209.43 41.2578 205.809 42.9805 203.184 46.4258ZM250.891 66.8867C251.945 67.4961 252.473 68.3047 252.473 69.3125C252.473 70.3672 252.062 71.2227 251.242 71.8789C250.445 72.5352 249.238 72.8633 247.621 72.8633C245.863 72.8633 244.422 72.4648 243.297 71.668C242.172 70.8477 241.586 69.5586 241.539 67.8008H230.465C230.465 70.0273 231.18 72.1484 232.609 74.1641C234.039 76.1797 236.031 77.7734 238.586 78.9453C241.141 80.1172 244.047 80.7031 247.305 80.7031C252.203 80.7031 256.188 79.6133 259.258 77.4336C262.352 75.2539 263.898 72.4297 263.898 68.9609C263.898 63.875 261.039 60.3477 255.32 58.3789C253.609 57.793 251.617 57.2891 249.344 56.8672C247.094 56.4453 245.453 55.9062 244.422 55.25C243.391 54.5938 242.875 53.7383 242.875 52.6836C242.875 51.6523 243.297 50.7969 244.141 50.1172C244.984 49.4141 246.027 49.0625 247.27 49.0625C250.48 49.0625 252.086 50.5859 252.086 53.6328H263.969C263.969 49.9297 262.445 46.9414 259.398 44.668C256.352 42.3945 252.32 41.2578 247.305 41.2578C242.641 41.2578 238.867 42.3945 235.984 44.668C233.102 46.918 231.66 49.7891 231.66 53.2812C231.66 55.25 232.164 56.9961 233.172 58.5195C234.18 60.043 235.645 61.3438 237.566 62.4219C239.488 63.4766 241.926 64.332 244.879 64.9883C247.832 65.6445 249.836 66.2773 250.891 66.8867ZM290.758 41.2578C286.82 41.2578 283.586 42.8516 281.055 46.0391V26H269.207V80H281.055V52.7188C282.062 51.1719 283.785 50.3984 286.223 50.3984C288.191 50.3984 289.586 50.8789 290.406 51.8398C291.227 52.7773 291.637 54.2539 291.637 56.2695V80H303.52V55.9883C303.473 51.1367 302.383 47.4688 300.25 44.9844C298.117 42.5 294.953 41.2578 290.758 41.2578ZM322.117 70.1914C320.875 69.0664 319.316 68.5039 317.441 68.5039C315.543 68.5039 313.973 69.0664 312.73 70.1914C311.512 71.3164 310.902 72.7344 310.902 74.4453C310.902 76.1562 311.512 77.5742 312.73 78.6992C313.973 79.8242 315.543 80.3867 317.441 80.3867C319.316 80.3867 320.875 79.8359 322.117 78.7344C323.359 77.6094 323.98 76.1797 323.98 74.4453C323.98 72.7109 323.359 71.293 322.117 70.1914Z" fill="#121212"/>
</svg>
